<?xml version="1.0" standalone="no"?>
<!DOCTYPE svg PUBLIC "-//W3C//DTD SVG 20010904//EN"
 "http://www.w3.org/TR/2001/REC-SVG-20010904/DTD/svg10.dtd">
<svg version="1.0" xmlns="http://www.w3.org/2000/svg"
 width="60.000000pt" height="60.000000pt" viewBox="0 0 60.000000 60.000000"
 preserveAspectRatio="xMidYMid meet">

<g transform="translate(0.000000,60.000000) scale(0.100000,-0.100000)"
fill="#000000" stroke="none">
<path d="M298 563 c12 -2 30 -2 40 0 9 3 -1 5 -23 4 -22 0 -30 -2 -17 -4z"/>
<path d="M244 523 c-3 -10 -10 -28 -16 -40 -11 -23 -4 -43 17 -43 15 0 28 -27
19 -41 -3 -5 -10 -9 -16 -9 -5 0 -24 -11 -40 -25 -17 -14 -32 -24 -35 -22 -2
3 3 23 10 46 8 22 11 41 6 41 -5 0 -4 12 1 26 13 34 4 47 -28 39 -23 -6 -24
-5 -11 12 13 16 12 17 -3 5 -14 -11 -15 -18 -6 -40 7 -15 18 -32 26 -39 12
-10 12 -19 -4 -62 -10 -28 -15 -53 -12 -56 3 -4 25 3 47 15 43 21 61 20 61 -6
0 -8 8 -17 18 -21 25 -9 52 -34 52 -48 0 -7 -14 -28 -30 -46 -52 -58 -92 -119
-86 -134 5 -15 66 -35 104 -35 45 0 110 22 141 48 l32 27 -17 55 c-8 30 -27
66 -40 81 -13 14 -24 31 -24 38 0 7 -6 11 -14 8 -8 -3 -20 1 -27 9 -20 24 -2
28 33 7 18 -10 54 -27 81 -37 26 -10 47 -23 47 -29 0 -12 29 23 30 37 0 4 -11
5 -24 2 -30 -7 -101 28 -157 79 -21 19 -48 35 -58 35 -21 0 -37 17 -27 27 3 3
12 0 21 -7 8 -7 23 -9 32 -6 14 6 15 9 4 15 -11 7 -9 11 8 20 24 13 29 50 6
52 -24 2 -28 4 -62 22 -40 21 -52 21 -59 0z m106 -43 c0 -5 -4 -10 -10 -10 -5
0 -10 5 -10 10 0 6 5 10 10 10 6 0 10 -4 10 -10z"/>
<path d="M470 516 c0 -2 8 -10 18 -17 15 -13 16 -12 3 4 -13 16 -21 21 -21 13z"/>
<path d="M99 463 c-13 -16 -12 -17 4 -4 9 7 17 15 17 17 0 8 -8 3 -21 -13z"/>
<path d="M510 476 c0 -2 8 -10 18 -17 15 -13 16 -12 3 4 -13 16 -21 21 -21 13z"/>
<path d="M540 343 c0 -28 3 -34 10 -23 13 20 13 60 0 60 -5 0 -10 -17 -10 -37z"/>
<path d="M583 295 c0 -33 2 -45 4 -27 2 18 2 45 0 60 -2 15 -4 0 -4 -33z"/>
<path d="M43 290 c0 -25 2 -35 4 -22 2 12 2 32 0 45 -2 12 -4 2 -4 -23z"/>
<path d="M90 136 c0 -2 8 -10 18 -17 15 -13 16 -12 3 4 -13 16 -21 21 -21 13z"/>
<path d="M519 123 c-13 -16 -12 -17 4 -4 16 13 21 21 13 21 -2 0 -10 -8 -17
-17z"/>
<path d="M130 96 c0 -2 8 -10 18 -17 15 -13 16 -12 3 4 -13 16 -21 21 -21 13z"/>
<path d="M479 83 c-13 -16 -12 -17 4 -4 16 13 21 21 13 21 -2 0 -10 -8 -17
-17z"/>
<path d="M303 23 c9 -2 25 -2 35 0 9 3 1 5 -18 5 -19 0 -27 -2 -17 -5z"/>
</g>
</svg>
