<svg version="1.2" xmlns="http://www.w3.org/2000/svg" viewBox="0 0 133 133" width="133" height="133"><style></style><path fill-rule="evenodd" d="m55 5.6c12.4 3.6 21.6 12 26 23.5c2.1 5.8 2.6 15.2 1.2 21.2c-5.3 21-28.1 33.5-49.3 27c-9.5-3-17.8-9.6-22.2-17.8c-8-15-5.2-33 7-44.5c5.7-5.4 13.3-9.1 21.7-10.5c2.8-0.5 12.4 0.2 15.6 1.1zm-19.4 0.6c-12.2 3.2-22.2 12.1-26.4 23.6c-1.3 3.5-1.5 5.5-1.5 11.5c0 11.7 2.9 18.5 11.2 26.4c8.1 7.7 16.3 10.6 28.2 10c7-0.3 11.3-1.6 17.2-5.2c10.7-6.5 16.8-16.5 17.3-28.8c0.4-7.9-0.5-12.1-3.9-18.7c-4.5-8.5-13-15.5-21.9-18.3c-4.6-1.3-15.7-1.6-20.2-0.5z"/><path fill-rule="evenodd" d="m39.7 9c0.7 0.6 1.8 1.2 2.6 1.2c0.8 0 2.1 0.6 2.8 1.2c0.9 0.8 2.5 1.4 4 1.5c3.2 0.2 4.4 1.2 4.4 3.6c0 2.1-1.2 3.5-3.6 4.2c-0.9 0.2-1.5 0.9-1.5 1.3c0 0.7 0.4 0.8 1.4 0.6c1-0.4 1.2-0.2 1 0.9c-0.4 3-6.5 2.8-8-0.2c-0.6-1.2-0.7-1.3-1.1-0.2c-0.3 0.6-0.2 1.7 0.2 2.6c0.6 1.2 1.2 1.4 3.3 1.4c2.4 0 3.1 0.4 7.9 4.8c3.4 3.1 6.9 5.6 10.1 7.1c2.6 1.4 5.9 3.1 7.2 3.8c1.9 1.1 2.5 1.2 3.5 0.6c1.6-1 2-2.6 1.6-7.7c-0.2-3 0-4.4 0.7-5.3c0.8-0.9 1.1-1 2-0.3c1.3 1 1.3 3.8 0.1 6c-1.4 2.6-2 6.2-1 6c0.6-0.1 1 0.4 1.1 1.3c0.3 1.6-1.1 4.4-1.9 3.9c-0.2-0.2-0.5 0.1-0.5 0.6c0 0.6-0.3 1-0.6 1c-0.4 0-0.7-0.4-0.7-0.9c0-0.6-0.5-1.2-1.1-1.3c-0.6-0.3-1.3-0.6-1.5-0.8c-0.1-0.2-2.8-1.2-5.9-2.3c-3-1.1-7.5-3.1-9.8-4.4c-2.2-1.3-4.3-2.4-4.5-2.4c-0.5 0-0.3 2.5 0.4 3.7c0.6 1 1.1 1.2 2.8 0.9c1.8-0.3 2.4-0.2 2.9 0.7c0.4 0.7 0.5 1.3 0.2 1.6c-0.2 0.2 1 1.7 2.7 3.4c3.4 3.4 4.8 6.3 6.4 12.7c0.6 2.5 1.4 4.9 1.8 5.4c0.6 0.6 0.2 1.3-2.3 3.5c-1.8 1.4-3.3 2.5-3.4 2.3c-0.2-0.1-1.1 0.5-2 1.2c-2.8 2.5-7.9 3.6-16.5 3.6c-7.1 0-8-0.1-11.4-1.6c-2.2-1-3.8-2.1-4-2.9c-0.5-1.3-0.3-1.7 3.4-6.3c0.8-1 2.1-2.9 2.9-4.1c0.9-1.1 3.6-4.4 6.1-7.1c4.2-4.5 4.6-5.2 4.2-6.9c-0.8-3.4-3-5.9-5.1-5.9c-1 0-2.2-0.2-2.6-0.5c-1.2-0.6-2.2-2.9-2.2-4.6c0-0.8-0.3-1.5-0.7-1.5c-0.4 0-3.3 1.1-6.4 2.4c-7.5 3.2-7.9 3.1-7.4-0.3c0.2-1.5 1.2-4.5 2.3-6.7c2.4-5 2.4-5.7 0.2-5.8c-1 0-2.5-0.3-3.4-0.5c-1.1-0.4-0.4-0.5 2.8-0.6c5 0 4.9-0.2 2.7 5.2c-0.5 1.4-1.2 3.8-1.4 5.2l-0.4 2.6l1.6-1.4c0.8-0.7 1.8-1.3 2.2-1.3c0.3 0 1.6-1 2.8-2.2c1.2-1.2 3.1-2.3 4.2-2.6c1.4-0.3 1.9-0.9 2.1-2.1c0.3-2.3-1.4-4.6-3.4-4.6c-0.8 0-1.8-0.5-2.3-0.9c-1.1-1.3-0.3-4.6 1.4-5.7c0.9-0.6 1.2-1.2 0.9-2.3c-0.2-0.9 0-2.3 0.4-3.3c1-2.1 3.5-2.3 5.3-0.5zm8.5 6.1c-1-0.9-1.1-0.8-1.1 0.6c0 2 1.1 2.8 1.7 1.4c0.2-0.5 0-1.4-0.6-2z"/><path fill-rule="evenodd" d="m25 13.7c4.5 2.3 5.4 4.3 2.1 4.4q-2.1 0.1-0.8 0.4c1.3 0.2 1.4 0.4 0.7 2c-0.5 1.5-1 1.8-2.7 1.8c-1.8 0-2.2-0.3-2.8-2.1c-0.4-1.2-1.1-2.2-1.4-2.2c-1.5 0-0.3-2.2 1.9-3.4c1.3-0.7 2.7-1.1 3-0.9zm-2 4.4c-0.7 0-0.9 0.2-0.4 0.4c0.5 0.1 1 0.1 1.2-0.1c0.3-0.2-0.1-0.4-0.8-0.3z"/></svg>